<?xml version="1.0" standalone="no"?>
<!DOCTYPE svg PUBLIC "-//W3C//DTD SVG 20010904//EN"
 "http://www.w3.org/TR/2001/REC-SVG-20010904/DTD/svg10.dtd">
<svg version="1.0" xmlns="http://www.w3.org/2000/svg"
 width="450.000000pt" height="450.000000pt" viewBox="0 0 450.000000 450.000000"
 preserveAspectRatio="xMidYMid meet">
<metadata>
Created by potrace 1.15, written by Peter Selinger 2001-2017
</metadata>
<g transform="translate(0.000000,450.000000) scale(0.100000,-0.100000)"
fill="#66b2b2" stroke="none">
<path d="M2100 4243 c-461 -36 -893 -229 -1231 -551 -490 -466 -713 -1175
-578 -1835 179 -875 902 -1518 1795 -1598 155 -14 415 1 564 33 786 167 1390
769 1555 1549 159 755 -138 1544 -756 2006 -161 120 -285 189 -479 266 -256
102 -587 152 -870 130z m-232 -952 c89 -26 177 -69 258 -126 92 -66 91 -62 36
-136 -60 -81 -76 -84 -162 -28 -141 92 -306 131 -466 109 -258 -34 -431 -183
-514 -445 -35 -107 -40 -347 -11 -469 38 -161 117 -291 226 -373 117 -89 224
-123 385 -123 181 0 295 37 412 131 34 27 69 49 77 49 9 0 41 -24 70 -54 63
-64 62 -75 -7 -133 -115 -96 -202 -141 -341 -175 -122 -31 -351 -30 -466 1
-321 86 -530 319 -607 676 -7 36 -12 125 -12 220 1 140 4 172 28 260 91 343
336 574 674 635 26 5 115 7 197 6 116 -3 166 -9 223 -25z m1802 -686 l0 -95
-435 0 -435 0 0 -315 0 -315 370 0 370 0 0 -100 0 -100 -370 0 -370 0 0 -385
0 -385 -120 0 -120 0 0 895 0 895 555 0 555 0 0 -95z"/>
</g>
</svg>
